<?xml version="1.0" standalone="no"?>
<!DOCTYPE svg PUBLIC "-//W3C//DTD SVG 20010904//EN"
 "http://www.w3.org/TR/2001/REC-SVG-20010904/DTD/svg10.dtd">
<svg version="1.0" xmlns="http://www.w3.org/2000/svg"
 width="300.000000pt" height="200.000000pt" viewBox="0 0 300.000000 200.000000"
 preserveAspectRatio="xMidYMid meet">

<g transform="translate(0.000000,200.000000) scale(0.100000,-0.100000)"
fill="#000000" stroke="none">
<path d="M830 1985 c9 -11 16 -12 25 -5 17 14 42 3 48 -21 6 -23 -6 -25 -23
-4 -13 16 -49 11 -61 -8 -17 -26 35 -120 71 -130 17 -4 20 0 22 31 1 21 1 48
0 62 -1 24 0 24 30 -10 17 -19 28 -30 24 -23 -4 7 2 17 14 23 24 13 26 5 5
-16 -21 -21 -19 -26 15 -59 29 -28 34 -29 113 -27 107 3 145 16 153 50 4 15
12 34 19 42 7 8 15 36 18 63 l7 47 -246 0 c-219 0 -245 -2 -234 -15z m417
-147 c-3 -8 -6 -5 -6 6 -1 11 2 17 5 13 3 -3 4 -12 1 -19z"/>
<path d="M796 1964 c-5 -14 -4 -15 9 -4 17 14 19 20 6 20 -5 0 -12 -7 -15 -16z"/>
<path d="M2613 1950 c-32 -14 -43 -25 -43 -42 -1 -13 -7 -34 -16 -48 -14 -24
-14 -24 -8 14 l7 39 -49 -7 c-88 -13 -144 -35 -144 -59 0 -20 0 -20 -24 2
l-24 23 -77 -21 c-71 -20 -79 -20 -95 -6 -16 14 -24 14 -94 -11 -62 -21 -79
-24 -91 -14 -12 10 -24 9 -60 -5 -25 -9 -45 -23 -45 -30 0 -16 -38 -40 -48
-30 -3 3 -1 15 6 26 19 30 -4 33 -73 9 -33 -11 -50 -18 -37 -16 26 5 27 2 6
-18 -19 -20 -48 -21 -41 -2 3 8 -3 22 -14 32 -29 26 -79 8 -101 -36 -17 -33
-17 -35 0 -42 9 -3 11 -7 5 -7 -7 -1 -19 -14 -27 -30 -14 -27 -43 -47 -53 -37
-10 9 9 45 25 50 12 4 17 16 16 41 -1 19 -4 35 -8 35 -3 0 -12 0 -20 0 -8 0
-28 -11 -43 -25 -27 -24 -27 -24 -5 -25 35 0 26 -16 -18 -29 -33 -10 -39 -15
-31 -29 18 -33 83 -102 96 -102 7 0 15 -7 19 -15 3 -8 27 -28 53 -45 26 -16
42 -30 34 -30 -8 0 -11 -3 -8 -6 4 -4 13 -1 21 5 8 7 20 9 27 5 7 -4 104 -6
216 -5 171 2 203 0 203 -12 0 -25 25 -40 39 -23 6 8 10 20 9 27 -2 11 28 15
156 17 l159 3 -7 -33 c-4 -18 -13 -85 -21 -148 -26 -218 -24 -209 -65 -235
-34 -21 -38 -29 -54 -105 -13 -60 -15 -85 -7 -93 15 -15 14 -27 -2 -27 -7 0
-20 -9 -30 -20 -18 -21 -37 -27 -37 -11 0 5 8 12 18 15 17 6 44 99 44 151 0
24 -59 117 -85 134 -9 6 -43 14 -75 17 -47 5 -66 3 -100 -15 -22 -11 -43 -21
-45 -21 -2 0 -3 18 -2 40 1 22 2 40 1 40 -1 0 -17 -11 -36 -25 -30 -22 -31
-25 -12 -25 35 0 27 -36 -19 -91 -22 -27 -38 -53 -34 -59 4 -6 26 -10 49 -9
63 4 181 -55 246 -122 27 -28 50 -55 50 -60 0 -5 7 -6 15 -3 11 4 13 2 9 -9
-3 -8 0 -18 6 -22 12 -7 -44 -51 -118 -92 -26 -14 -54 -32 -62 -40 -13 -13
-12 -14 10 -8 14 4 45 21 70 37 32 22 40 25 26 9 -27 -30 -100 -63 -121 -55
-13 6 -16 4 -10 -6 5 -8 3 -11 -4 -9 -7 3 -23 31 -37 64 -14 33 -27 65 -30 72
-3 7 10 14 36 18 25 4 38 11 33 16 -9 9 -53 3 -176 -21 -67 -14 -128 -12 -173
4 -22 7 -45 11 -52 9 -8 -3 -10 2 -6 14 5 17 5 17 -9 1 -23 -29 -25 -21 -12
36 11 46 11 54 -1 49 -8 -3 -11 -10 -8 -17 3 -6 -3 -1 -14 12 -11 12 -22 28
-25 35 -2 6 -8 8 -13 4 -4 -4 -3 -17 4 -27 7 -11 12 -25 12 -32 0 -10 -2 -10
-9 0 -4 7 -14 12 -22 10 -9 -2 -13 4 -11 15 4 21 -14 23 -22 2 -3 -8 -10 -15
-17 -15 -6 0 -9 7 -5 15 4 13 2 13 -14 5 -26 -14 -29 -13 -24 13 l5 22 -10
-22 c-11 -24 -29 -27 -85 -14 l-28 6 21 19 c28 25 27 50 -3 64 -21 10 -23 8
-19 -11 4 -19 3 -20 -9 -7 -7 8 -22 22 -32 30 -18 14 -18 14 -6 -6 10 -16 10
-26 2 -40 -7 -11 -12 -13 -12 -6 0 7 -4 11 -9 8 -4 -3 -18 3 -30 13 -13 11
-32 18 -44 15 -11 -2 -32 3 -45 12 -13 9 -26 13 -29 10 -3 -3 -15 6 -26 20
-15 20 -17 28 -8 34 10 5 9 9 -3 13 -8 3 -17 1 -20 -6 -3 -8 -5 -8 -5 2 -1 8
-9 5 -22 -10 -11 -13 -18 -18 -14 -11 3 6 1 12 -5 12 -7 0 -10 7 -6 15 5 14 2
17 -26 19 -11 1 -55 73 -61 101 -3 15 -24 35 -36 35 -18 0 -12 48 7 60 16 11
15 11 -2 5 -22 -6 -127 -21 -226 -30 l-65 -6 -19 55 c-19 56 -19 56 -60 55
-32 0 -37 -2 -21 -9 18 -8 18 -9 -5 -10 -23 -2 -22 -3 8 -12 17 -6 32 -15 32
-19 0 -11 -7 -11 -49 1 -47 13 -50 6 -6 -14 43 -21 46 -34 6 -28 -16 2 -36 0
-45 -5 -29 -16 36 -70 111 -93 36 -11 73 -20 82 -21 9 -1 6 -4 -9 -9 -23 -7
-23 -8 -3 -9 12 -1 25 -5 28 -11 4 -6 -13 -10 -45 -10 -41 0 -56 -5 -77 -26
-14 -14 -23 -28 -20 -31 4 -3 28 -2 54 2 l48 8 -40 13 c-40 14 -39 14 30 9 39
-3 85 -5 103 -5 52 0 37 -16 -25 -27 l-58 -10 53 -2 c56 -1 66 -11 30 -30 -19
-9 -13 -11 40 -7 35 2 74 12 88 21 32 20 41 13 28 -23 -11 -34 -62 -59 -129
-66 -80 -7 -195 -28 -195 -36 0 -8 114 6 154 20 40 14 42 13 20 -11 -10 -12
-36 -28 -57 -36 -43 -18 -45 -29 -1 -13 18 7 30 8 32 2 5 -15 72 9 83 30 10
19 44 24 54 8 7 -11 -13 -90 -23 -90 -4 0 -23 -14 -42 -30 -23 -20 -30 -30
-19 -30 9 0 28 12 42 26 29 29 27 32 51 -52 12 -45 12 -55 0 -72 -27 -38 -78
-62 -135 -62 -68 -1 -45 -19 29 -23 30 -2 56 -10 67 -20 9 -9 20 -17 24 -17 4
0 17 -14 30 -30 l22 -31 -35 -14 c-45 -19 -68 -19 -114 0 -26 11 -33 18 -23
24 10 7 9 9 -3 14 -11 4 -16 1 -16 -11 0 -10 -6 -27 -14 -37 -12 -17 -12 -21
1 -30 17 -12 32 -74 33 -128 0 -21 7 -45 15 -53 21 -21 19 -34 -5 -34 -25 0
-27 -20 -2 -21 14 0 13 -2 -5 -11 -22 -10 -33 -35 -33 -75 0 -17 -6 -23 -22
-23 -13 0 -43 -4 -68 -8 -32 -7 31 -10 214 -11 229 -1 257 1 246 14 -7 8 -27
15 -44 15 -37 0 -76 23 -58 34 7 4 12 19 12 34 0 20 -3 23 -12 14 -15 -15 -58
-16 -58 -2 0 6 6 10 13 10 6 0 4 5 -5 11 -17 9 -26 49 -12 49 4 0 22 -13 41
-30 18 -16 42 -30 52 -30 10 0 25 -8 32 -17 12 -14 12 -16 -1 -9 -9 4 -8 2 2
-7 10 -8 16 -17 13 -20 -3 -4 -2 -5 1 -2 4 2 26 -11 49 -30 l42 -35 954 0 954
0 -550 221 c-489 196 -742 299 -1094 446 -57 24 -106 42 -108 40 -2 -2 29 -18
69 -35 121 -50 218 -97 218 -103 0 -12 -85 -49 -88 -39 -2 6 -20 10 -40 10
l-37 1 24 19 c13 11 18 20 12 20 -24 0 -90 -40 -109 -67 -18 -24 -23 -26 -45
-16 -20 9 -24 17 -20 35 8 32 21 47 61 67 l35 18 -21 21 -22 22 -47 -21 c-27
-11 -58 -31 -69 -45 -19 -23 -24 -25 -44 -14 -16 8 -20 18 -16 33 3 12 6 25 6
29 0 4 16 15 35 24 37 17 44 31 20 40 -20 8 -106 -32 -127 -59 -16 -20 -18
-21 -33 -6 -26 26 -9 66 36 90 41 21 48 33 24 42 -15 7 -103 -38 -121 -61 -14
-19 -54 -6 -54 17 0 20 22 42 64 63 29 15 29 16 7 23 -12 4 -28 2 -36 -5 -22
-19 -37 -2 -29 33 3 18 7 33 9 35 6 7 93 -32 115 -52 26 -23 62 -39 115 -51
66 -14 225 -78 218 -88 -3 -6 -1 -7 6 -3 12 8 164 -42 231 -74 19 -10 72 -29
118 -44 45 -15 82 -32 82 -37 0 -5 8 -9 18 -9 10 0 47 -12 83 -26 35 -14 82
-32 104 -39 164 -55 256 -95 249 -106 -3 -5 2 -6 10 -3 8 3 36 -4 63 -15 121
-51 334 -122 344 -115 7 4 9 3 6 -3 -3 -5 17 -20 46 -33 29 -13 99 -45 157
-71 58 -26 115 -50 128 -54 l22 -6 0 478 0 479 -62 13 c-35 7 -127 15 -205 17
-129 2 -141 1 -136 -14 3 -9 -6 -3 -20 14 -22 26 -37 33 -102 44 -41 7 -75 17
-75 23 0 5 10 7 23 3 12 -3 59 -9 104 -12 61 -5 87 -4 98 6 13 11 16 11 13 -1
-3 -15 88 -29 271 -44 l91 -7 0 116 c0 105 -2 116 -18 116 -10 0 -23 -5 -29
-11 -12 -12 -69 -4 -78 11 -3 5 22 12 55 16 61 7 61 7 55 35 -4 18 -2 29 4 29
7 0 11 44 11 130 0 101 -3 130 -13 130 -8 0 -60 -4 -118 -9 -57 -6 -183 -15
-279 -21 -178 -11 -643 -43 -870 -60 -69 -5 -143 -9 -165 -8 -92 2 96 19 680
63 110 8 281 22 380 30 99 9 225 19 280 23 l100 7 3 134 c2 90 -1 138 -9 147
-8 10 -8 14 0 14 6 0 11 7 11 15 0 19 -4 19 -38 1 -15 -8 -50 -17 -77 -21 -28
-4 -58 -12 -68 -17 -13 -7 -19 -4 -26 15 -16 41 -106 50 -178 17z m97 0 c0 -5
-19 -9 -42 -9 l-43 2 40 7 c22 4 41 8 43 9 1 0 2 -3 2 -9z m215 -109 c-3 -5
-20 -13 -38 -16 -17 -4 -37 -12 -44 -17 -7 -6 -27 -14 -45 -18 -18 -4 -42 -11
-53 -15 -13 -4 -12 -1 5 9 14 8 32 15 41 16 8 0 21 6 27 12 7 7 32 18 55 24
56 15 59 15 52 5z m-275 -12 c23 -1 22 -2 -10 -16 -37 -16 -172 -44 -179 -37
-2 2 18 13 45 24 27 12 56 25 64 30 8 5 24 7 35 5 11 -3 31 -5 45 -6z m-635
-28 c-16 -14 -55 -23 -55 -12 0 9 20 17 50 20 8 1 10 -2 5 -8z m348 -3 c-15
-7 -30 -7 -50 0 -26 10 -24 10 22 11 42 0 46 -2 28 -11z m-224 -34 c-13 -7
-42 -13 -64 -13 -40 1 -40 1 -10 10 17 6 38 12 49 14 10 2 21 7 24 9 3 3 9 3
15 -1 5 -3 -1 -12 -14 -19z m80 -20 c-6 -16 -13 -24 -16 -17 -5 13 16 58 23
50 3 -2 -1 -17 -7 -33z m-481 -16 c-26 -11 -50 -29 -54 -40 -5 -15 -40 -38
-60 -38 -10 0 -3 39 8 47 16 10 130 51 143 51 6 0 -11 -9 -37 -20z m219 16
c-3 -4 -35 -15 -69 -25 -35 -9 -53 -18 -40 -18 33 -1 27 -16 -13 -28 -40 -13
-39 -13 -23 22 8 17 26 30 57 39 48 15 99 21 88 10z m735 -16 c-7 -7 -12 -8
-12 -2 0 14 12 26 19 19 2 -3 -1 -11 -7 -17z m-618 -3 c-7 -16 -42 -30 -52
-20 -8 8 26 35 45 35 7 0 10 -6 7 -15z m-76 -25 c-7 -10 -14 -18 -15 -16 -6 6
9 36 18 36 5 0 4 -9 -3 -20z m876 -218 c3 -6 -6 -24 -20 -41 -16 -19 -24 -38
-20 -47 5 -13 1 -15 -19 -10 -29 7 -32 -1 -7 -20 16 -13 16 -13 -1 -14 -10 0
-27 5 -38 10 -13 7 -19 7 -19 1 0 -6 15 -18 33 -27 17 -10 27 -19 20 -21 -6
-2 -25 3 -42 11 -19 10 -32 12 -36 6 -3 -6 1 -13 9 -16 22 -9 9 -26 -17 -22
-16 2 -23 -3 -25 -20 -5 -30 -30 -39 -46 -16 -8 10 -31 23 -52 29 -27 8 -39
17 -38 28 1 13 -4 15 -25 10 -23 -6 -68 -50 -64 -63 2 -10 -18 -40 -27 -40 -6
0 -6 9 0 24 6 17 5 33 -4 53 -11 22 -12 42 -4 93 16 100 10 94 84 87 37 -4 73
-12 80 -18 11 -9 14 -8 14 4 0 18 15 21 156 25 61 2 104 0 108 -6z m76 -247
c-7 -9 -15 -13 -17 -11 -7 7 7 26 19 26 6 0 6 -6 -2 -15z m-2263 -67 c10 -18
23 -46 30 -63 11 -26 7 -24 -32 18 -25 27 -45 55 -45 63 0 26 29 14 47 -18z
m2073 -158 c0 -5 -5 -10 -11 -10 -5 0 -7 5 -4 10 3 6 8 10 11 10 2 0 4 -4 4
-10z m81 -10 c13 -8 19 -7 19 0 0 6 5 8 12 4 12 -8 -25 -44 -45 -44 -6 0 -2 7
9 16 17 14 17 15 1 10 -10 -3 -15 -2 -12 3 3 5 -3 12 -12 14 -10 3 -12 5 -5 6
7 0 22 -4 33 -9z m-1971 -71 c0 -5 -4 -9 -10 -9 -5 0 -10 7 -10 16 0 8 5 12
10 9 6 -3 10 -10 10 -16z m450 -39 c-11 -20 -30 -28 -30 -12 0 11 22 32 32 32
5 0 4 -9 -2 -20z m1004 -26 c23 -9 20 -23 -4 -17 -11 3 -20 9 -20 14 0 11 3
11 24 3z m-1619 -24 c-3 -5 -16 -10 -28 -9 -21 0 -21 1 -2 9 28 12 37 12 30 0z
m1569 -45 c-10 -8 -23 -15 -28 -15 -6 0 -1 7 10 15 10 8 23 15 28 15 6 0 1 -7
-10 -15z m451 -25 c7 -12 -2 -12 -30 0 -19 8 -19 9 2 9 12 1 25 -3 28 -9z
m-95 -20 c0 -5 -4 -10 -10 -10 -5 0 -10 5 -10 10 0 6 5 10 10 10 6 0 10 -4 10
-10z m50 -29 c0 -15 -51 -72 -64 -70 -26 3 -38 -2 -33 -15 10 -25 -27 -7 -40
20 -12 26 -5 32 15 12 9 -9 17 -7 34 9 18 16 74 51 86 53 1 0 2 -4 2 -9z m-90
-5 c0 -2 -8 -10 -17 -17 -16 -13 -17 -12 -4 4 13 16 21 21 21 13z m-1672 -68
c-6 -18 -28 -21 -28 -4 0 9 7 16 16 16 9 0 14 -5 12 -12z m1782 -9 c0 -5 -7
-9 -15 -9 -15 0 -20 12 -9 23 8 8 24 -1 24 -14z m-406 5 c17 -7 22 -49 7 -59
-5 -3 -13 0 -17 7 -5 8 -10 5 -15 -10 -5 -14 -14 -19 -28 -15 -23 6 -17 33 7
33 13 0 13 2 -1 18 -25 27 3 43 47 26z m-1400 -50 c9 -3 16 -12 16 -20 0 -10
7 -13 25 -8 32 8 32 -9 0 -26 -35 -19 -16 -33 25 -19 28 10 38 9 67 -6 38 -21
38 -34 0 -53 -15 -7 -27 -17 -27 -22 0 -15 24 -17 50 -3 14 7 33 13 42 13 23
0 68 -21 68 -32 0 -4 8 -8 18 -8 14 0 13 -3 -6 -18 -18 -14 -20 -20 -10 -30 9
-9 7 -12 -10 -12 -13 0 -39 -8 -60 -19 -60 -30 -82 -35 -82 -17 0 9 -9 16 -20
16 -31 0 -24 17 20 45 62 39 47 40 -23 1 l-63 -35 -29 23 -29 23 57 33 c56 31
57 33 41 51 -22 24 -35 24 -84 -1 -49 -25 -47 -25 -52 5 -3 15 1 30 12 40 10
9 16 24 13 35 -10 39 7 57 41 44z m116 -9 c0 -8 -7 -15 -15 -15 -16 0 -20 12
-8 23 11 12 23 8 23 -8z m-200 -19 c0 -2 -7 -9 -15 -16 -13 -11 -14 -10 -9 4
5 14 24 23 24 12z m559 -43 c34 -20 37 -29 17 -56 -12 -15 -18 -16 -40 -6 -20
10 -26 19 -26 46 0 38 6 40 49 16z m-244 -2 c7 -12 -12 -24 -25 -16 -11 7 -4
25 10 25 5 0 11 -4 15 -9z m580 -25 c63 -25 90 -55 40 -42 -43 11 -98 40 -103
54 -5 16 -5 16 63 -12z m-455 -67 c0 -5 -7 -9 -15 -9 -15 0 -20 12 -9 23 8 8
24 -1 24 -14z m901 -123 c377 -162 480 -208 476 -212 -1 -2 -28 6 -60 18 l-57
21 -32 -25 c-18 -14 -45 -37 -60 -51 l-27 -25 -41 72 -42 72 -86 37 c-48 20
-92 37 -98 37 -6 0 -23 -9 -37 -20 l-26 -20 -27 49 c-24 45 -32 52 -90 72 -61
22 -64 24 -64 56 0 18 2 33 4 33 2 0 122 -51 267 -114z m-791 86 c0 -13 -12
-22 -22 -16 -10 6 -1 24 13 24 5 0 9 -4 9 -8z m-46 -21 c3 -5 -19 -23 -50 -41
-31 -17 -57 -30 -58 -28 0 2 -7 13 -13 25 -11 19 -10 24 7 33 11 6 31 8 44 4
14 -3 33 -1 43 5 22 13 21 13 27 2z m293 1 c9 -5 7 -13 -5 -30 l-17 -22 -30
25 c-16 14 -23 22 -14 19 10 -3 20 -1 24 5 7 13 25 14 42 3z m-629 -68 c22
-15 30 -44 12 -44 -5 0 -10 -7 -10 -15 0 -18 -21 -20 -38 -3 -16 16 -16 78 1
78 7 0 23 -7 35 -16z m304 -33 c-9 -5 -2 -15 23 -33 l36 -26 -34 -21 c-39 -24
-69 -19 -99 17 -15 19 -15 21 9 42 26 23 65 41 73 33 2 -2 -1 -8 -8 -12z m79
9 c10 -6 19 -17 19 -25 0 -8 6 -12 13 -10 6 3 19 0 27 -5 13 -8 13 -11 -1 -25
-14 -14 -18 -14 -41 4 -14 12 -37 25 -52 31 -30 11 -34 26 -8 33 9 3 18 5 20
6 2 0 12 -4 23 -9z m209 -26 c0 -8 -5 -12 -10 -9 -6 4 -8 11 -5 16 9 14 15 11
15 -7z m184 -30 c3 -8 2 -12 -4 -9 -6 3 -10 10 -10 16 0 14 7 11 14 -7z m-896
-6 c7 -7 12 -18 12 -25 0 -11 -5 -11 -20 -3 -11 6 -20 17 -20 25 0 18 12 19
28 3z m596 -33 c-4 -8 -13 -15 -21 -15 -13 0 -13 3 -3 15 7 8 16 15 21 15 5 0
6 -7 3 -15z m-284 -56 c0 -26 -23 -41 -43 -26 -13 9 -15 21 -11 50 l7 38 23
-22 c13 -13 24 -30 24 -40z m295 21 c-3 -5 -11 -10 -16 -10 -6 0 -7 5 -4 10 3
6 11 10 16 10 6 0 7 -4 4 -10z m60 -30 c-13 -13 -28 -17 -42 -14 -31 9 -29 18
10 36 40 20 60 6 32 -22z m265 -10 c13 -8 13 -10 -2 -10 -9 0 -20 5 -23 10 -8
13 5 13 25 0z m-330 -20 c0 -5 7 -10 16 -10 10 0 14 -6 11 -14 -4 -10 -1 -13
9 -9 16 6 18 -6 3 -27 -6 -9 -12 -11 -15 -4 -2 6 -19 8 -37 6 l-32 -5 19 22
c11 11 14 21 8 21 -7 0 -12 -4 -12 -10 0 -5 -9 -10 -20 -10 -28 0 -25 17 8 34
32 18 42 19 42 6z m215 -46 c-38 -30 -61 -36 -32 -10 15 14 33 26 40 26 7 0 3
-8 -8 -16z"/>
<path d="M761 1879 c-2 -32 40 -135 76 -187 35 -51 148 -162 165 -162 4 0 8
16 8 35 0 42 16 46 31 8 17 -45 16 -68 -4 -68 -10 0 -21 -5 -25 -10 -4 -6 -16
-10 -27 -10 -14 0 -22 -9 -26 -30 l-6 -30 -11 28 c-7 16 -12 35 -12 42 0 8
-27 43 -61 77 l-60 63 27 -50 c14 -27 35 -62 46 -77 22 -31 22 -105 1 -100 -7
1 -13 -7 -13 -19 0 -11 -4 -18 -9 -15 -4 3 7 -26 26 -65 28 -55 34 -79 31
-114 -2 -25 1 -47 7 -50 6 -3 5 -7 -3 -11 -9 -4 -5 -13 13 -30 21 -19 30 -22
46 -14 10 6 20 15 20 20 1 6 2 16 3 23 1 6 8 11 16 9 8 -1 3 9 -12 22 -31 28
-36 38 -13 30 8 -4 15 -1 15 5 0 6 12 16 28 22 15 6 22 13 15 16 -6 2 -26 -3
-43 -12 -31 -16 -33 -16 -60 10 -27 26 -28 28 -13 63 8 21 32 55 52 77 20 22
48 57 61 77 27 41 43 48 112 48 26 0 49 4 52 9 3 4 -8 30 -25 56 -30 48 -32
79 -2 35 9 -12 27 -32 41 -44 13 -12 32 -37 42 -57 19 -35 82 -99 100 -99 19
0 40 33 40 63 0 18 4 47 9 65 8 27 7 36 -10 53 -10 10 -29 19 -41 19 -35 1
-58 24 -58 58 0 26 -3 29 -21 25 -11 -3 -23 -12 -26 -19 -3 -8 -9 -14 -14 -14
-6 0 -5 9 2 21 18 35 0 40 -112 32 l-104 -7 73 -17 c41 -9 84 -15 95 -13 18 4
18 3 -3 -7 -25 -11 -97 -7 -135 7 -14 5 -9 -3 14 -24 18 -18 36 -32 40 -32 3
0 4 -24 2 -52 -4 -52 -4 -52 -16 -24 -11 25 -13 26 -20 10 -6 -15 -10 -11 -15
21 -5 24 -4 42 2 46 6 4 -6 15 -26 24 -20 10 -36 22 -36 27 0 5 -4 7 -9 4 -5
-3 -14 1 -20 8 -10 12 -9 13 7 10 27 -8 46 20 39 60 -3 22 -21 52 -49 80 l-43
46 -10 -37 c-10 -35 -13 -37 -52 -39 -39 -1 -43 1 -48 27 -4 16 -11 27 -16 23
-5 -3 -9 4 -9 15 0 22 -20 30 -21 9 0 -7 -4 -4 -9 7 -6 15 -9 16 -9 4z m179
-139 c6 -11 8 -20 6 -20 -3 0 -10 9 -16 20 -6 11 -8 20 -6 20 3 0 10 -9 16
-20z"/>
<path d="M1210 1774 c0 -12 7 -24 15 -28 19 -7 19 5 0 30 -14 19 -14 19 -15
-2z"/>
<path d="M1347 1723 c-9 -8 12 -33 28 -33 8 0 11 8 8 20 -5 20 -23 26 -36 13z"/>
<path d="M693 1702 c1 -14 5 -18 11 -12 7 7 6 14 -1 21 -9 9 -12 7 -10 -9z"/>
<path d="M761 1709 c-1 -9 7 -23 17 -30 15 -12 16 -12 6 1 -6 8 -14 22 -17 30
-5 13 -6 12 -6 -1z"/>
<path d="M720 1674 c0 -11 7 -29 15 -40 13 -17 14 -16 5 15 -11 41 -20 51 -20
25z"/>
<path d="M608 1593 c7 -3 16 -2 19 1 4 3 -2 6 -13 5 -11 0 -14 -3 -6 -6z"/>
<path d="M1582 1424 c-7 -13 -18 -15 -43 -11 -102 19 -105 19 -122 -18 -9 -19
-14 -41 -11 -49 10 -26 79 -46 154 -44 39 0 75 -3 79 -8 5 -5 12 -23 16 -41 6
-28 4 -31 -14 -26 -13 3 -21 1 -21 -7 0 -7 -8 -9 -20 -5 -11 4 -20 2 -20 -4 0
-6 11 -11 25 -11 32 0 34 -30 3 -31 -22 0 -22 -1 -3 -8 19 -8 19 -8 -3 -20
-12 -6 -22 -17 -22 -24 0 -7 -7 -20 -14 -30 -19 -24 -76 -13 -76 16 0 11 -9
35 -21 53 -19 32 -20 34 -2 34 26 0 47 16 39 29 -5 8 -15 7 -35 -3 -25 -13
-30 -13 -47 4 -19 20 -20 20 -62 -1 -23 -12 -51 -34 -63 -50 -27 -39 -59 -39
-59 -1 0 15 5 33 12 40 21 21 4 20 -44 -2 -26 -11 -51 -31 -57 -43 -13 -29
-51 -31 -51 -4 0 21 25 51 41 51 6 0 7 4 4 10 -9 15 -60 -15 -85 -50 -21 -30
-21 -32 -5 -50 10 -11 19 -35 20 -54 1 -19 7 -41 14 -49 17 -21 137 -31 161
-14 20 14 80 11 80 -3 0 -5 -14 -11 -30 -15 -39 -9 -27 -27 30 -44 30 -9 45
-9 61 -1 23 13 35 8 24 -9 -3 -6 -12 -9 -18 -5 -7 3 -3 -2 7 -10 11 -9 34 -16
50 -17 17 0 78 -8 136 -18 91 -16 110 -17 145 -5 22 8 48 14 58 14 19 0 21 8
8 29 -6 9 -11 10 -15 2 -11 -18 -91 -13 -114 7 -11 10 -27 48 -38 89 l-18 72
27 40 c22 33 27 52 26 98 0 56 -15 154 -18 123 -1 -9 -8 -4 -17 13 -10 19 -12
32 -5 46 6 10 7 21 4 25 -12 12 -42 6 -51 -10z m-442 -335 c0 -5 -7 -9 -15 -9
-15 0 -20 12 -9 23 8 8 24 -1 24 -14z m145 0 c10 -15 -1 -23 -20 -15 -9 3 -13
10 -10 16 8 13 22 13 30 -1z m-105 -54 c-13 -16 -40 -20 -40 -7 0 14 12 22 33
22 16 0 17 -3 7 -15z m320 -30 c0 -14 -4 -25 -10 -25 -5 0 -10 11 -10 25 0 14
5 25 10 25 6 0 10 -11 10 -25z m45 5 c3 -5 -1 -10 -9 -10 -9 0 -16 5 -16 10 0
6 4 10 9 10 6 0 13 -4 16 -10z m-45 -50 c0 -11 -63 -19 -74 -10 -4 5 -6 12 -3
17 7 11 77 4 77 -7z"/>
<path d="M1303 1368 c-40 -44 -74 -137 -40 -111 6 6 29 13 49 17 29 5 39 3 46
-10 14 -26 45 -10 37 18 -30 110 -52 130 -92 86z"/>
<path d="M2070 1350 c0 -11 -6 -20 -14 -20 -8 0 -30 -9 -48 -19 -36 -21 -78
-14 -78 13 0 20 -25 27 -45 12 -17 -12 -16 -14 6 -29 13 -10 29 -17 36 -17 7
0 22 -9 33 -20 16 -16 20 -17 20 -5 0 17 26 20 35 4 11 -17 -5 -79 -19 -79
-12 0 -32 -29 -24 -35 2 -1 62 -7 133 -14 72 -7 140 -15 152 -18 19 -4 22 1
33 53 9 43 9 67 1 96 -13 42 -22 46 -111 50 -50 3 -55 5 -54 26 0 18 -5 22
-28 22 -21 0 -28 -5 -28 -20z m42 -103 c1 -15 8 -29 15 -31 20 -8 16 -36 -5
-36 -23 0 -42 49 -30 80 10 27 17 23 20 -13z"/>
<path d="M110 1350 c0 -5 5 -10 11 -10 5 0 7 5 4 10 -3 6 -8 10 -11 10 -2 0
-4 -4 -4 -10z"/>
<path d="M170 1350 c0 -5 5 -10 11 -10 5 0 7 5 4 10 -3 6 -8 10 -11 10 -2 0
-4 -4 -4 -10z"/>
<path d="M1744 1269 c-4 -7 -3 -14 4 -17 7 -2 12 -11 12 -19 0 -9 3 -14 6 -10
4 3 23 -1 44 -9 35 -14 41 -14 64 1 34 22 33 42 -1 49 -82 16 -121 17 -129 5z
m124 -26 c2 -9 -7 -13 -28 -13 -28 0 -31 2 -20 15 15 18 41 16 48 -2z"/>
<path d="M0 1195 l0 -55 33 0 c17 0 38 4 46 9 13 8 13 12 1 28 -28 36 -64 73
-72 73 -4 0 -8 -25 -8 -55z"/>
<path d="M1971 1224 c0 -11 3 -14 6 -6 3 7 2 16 -1 19 -3 4 -6 -2 -5 -13z"/>
<path d="M1555 1130 c-3 -5 -1 -10 4 -10 6 0 11 5 11 10 0 6 -2 10 -4 10 -3 0
-8 -4 -11 -10z"/>
<path d="M74 1100 c-30 -12 -36 -25 -19 -40 12 -10 15 -10 15 3 0 20 27 30 34
12 2 -7 -5 -20 -16 -27 -21 -14 -20 -15 27 -63 26 -27 54 -60 63 -73 8 -13 26
-28 40 -33 15 -6 22 -15 19 -23 -3 -8 9 -31 29 -51 19 -20 34 -41 34 -46 0 -5
6 -9 14 -9 23 0 47 -40 36 -60 -17 -31 3 -43 51 -30 l44 12 -25 20 c-14 12
-24 25 -22 30 1 5 -41 62 -94 126 -90 109 -106 145 -49 108 33 -22 59 -21 50
2 -4 9 -9 25 -12 34 -4 13 -12 16 -35 11 -24 -5 -30 -2 -35 16 -3 11 -11 21
-19 21 -7 0 -22 9 -33 21 -11 12 -25 18 -32 14 -7 -5 -18 1 -28 13 -12 15 -21
18 -37 12z"/>
<path d="M1040 1101 c0 -5 5 -13 10 -16 6 -3 10 -2 10 4 0 5 -4 13 -10 16 -5
3 -10 2 -10 -4z"/>
<path d="M975 1070 c-3 -5 -1 -10 4 -10 6 0 11 5 11 10 0 6 -2 10 -4 10 -3 0
-8 -4 -11 -10z"/>
<path d="M2245 1070 c3 -5 10 -10 16 -10 5 0 9 5 9 10 0 6 -7 10 -16 10 -8 0
-12 -4 -9 -10z"/>
<path d="M1 965 c0 -38 4 -101 10 -140 5 -38 11 -76 11 -82 1 -7 7 -13 13 -13
12 0 8 45 -19 215 l-14 90 -1 -70z"/>
<path d="M1130 961 c0 -12 5 -21 10 -21 6 0 10 6 10 14 0 8 -4 18 -10 21 -5 3
-10 -3 -10 -14z"/>
<path d="M630 920 c-12 -7 -8 -10 15 -10 17 0 37 5 45 10 12 7 8 10 -15 10
-16 0 -37 -5 -45 -10z"/>
<path d="M1360 870 c0 -5 5 -10 11 -10 5 0 7 5 4 10 -3 6 -8 10 -11 10 -2 0
-4 -4 -4 -10z"/>
<path d="M2100 820 c0 -5 5 -10 11 -10 5 0 7 5 4 10 -3 6 -8 10 -11 10 -2 0
-4 -4 -4 -10z"/>
<path d="M709 800 c-13 -10 -19 -19 -13 -20 6 0 19 9 29 20 23 26 14 26 -16 0z"/>
<path d="M2015 791 l-60 -6 55 -8 c56 -8 90 -3 90 14 0 5 -6 8 -12 7 -7 -1
-40 -4 -73 -7z"/>
<path d="M710 765 c-13 -14 -19 -25 -13 -25 12 0 48 38 41 45 -2 3 -15 -6 -28
-20z"/>
<path d="M719 691 c-16 -13 -23 -29 -23 -54 0 -48 7 -52 42 -31 28 16 35 34
19 50 -4 4 -2 13 3 19 7 9 6 16 -4 24 -10 9 -19 7 -37 -8z"/>
<path d="M43 668 c-59 -13 -54 -24 9 -20 69 4 98 10 98 22 0 12 -50 11 -107
-2z"/>
<path d="M315 620 c-3 -5 -20 -10 -37 -10 -28 0 -129 -46 -136 -62 -2 -4 -22
-13 -45 -19 -39 -10 -43 -9 -65 16 -13 15 -25 25 -28 22 -3 -2 2 -12 11 -20
19 -20 19 -37 0 -37 -10 0 -15 -10 -15 -30 0 -27 3 -30 23 -25 27 7 75 -31 59
-47 -7 -7 -4 -22 9 -47 10 -19 19 -41 19 -47 0 -14 -46 -30 -92 -33 -16 -1
-18 -15 -18 -141 l0 -140 151 0 c147 0 151 1 146 20 -7 26 23 42 71 39 55 -3
61 -1 55 19 -4 15 10 22 86 45 50 15 91 31 91 36 0 9 -118 -16 -230 -50 -90
-26 -116 -25 -124 6 -3 13 -18 36 -32 50 -35 36 -28 57 26 73 71 21 73 22 68
27 -2 3 -30 0 -62 -6 -44 -8 -61 -7 -72 2 -20 17 -46 67 -40 78 3 4 39 16 81
26 41 9 75 21 75 26 0 12 -14 11 -95 -6 -64 -13 -71 -13 -82 2 -7 9 -13 27
-13 39 0 19 13 25 111 50 135 35 173 57 88 51 -50 -3 -54 -2 -39 12 8 9 32 25
53 36 41 22 44 27 23 44 -10 8 -16 9 -21 1z m-85 -100 c0 -5 -4 -10 -10 -10
-5 0 -10 5 -10 10 0 6 5 10 10 10 6 0 10 -4 10 -10z m-144 -436 c-3 -9 -6 -18
-6 -20 0 -3 -4 -3 -10 1 -11 7 -2 35 12 35 6 0 7 -7 4 -16z m64 -44 c0 -5 -4
-10 -10 -10 -5 0 -10 5 -10 10 0 6 5 10 10 10 6 0 10 -4 10 -10z"/>
<path d="M740 584 c-25 -13 -38 -23 -30 -24 16 0 80 36 80 45 0 3 -1 4 -2 4
-2 -1 -23 -12 -48 -25z"/>
<path d="M400 535 c0 -8 5 -15 10 -15 6 0 10 7 10 15 0 8 -4 15 -10 15 -5 0
-10 -7 -10 -15z"/>
<path d="M470 490 c0 -5 5 -10 11 -10 5 0 7 5 4 10 -3 6 -8 10 -11 10 -2 0 -4
-4 -4 -10z"/>
<path d="M618 483 c7 -3 16 -2 19 1 4 3 -2 6 -13 5 -11 0 -14 -3 -6 -6z"/>
<path d="M515 470 c3 -5 8 -10 11 -10 2 0 4 5 4 10 0 6 -5 10 -11 10 -5 0 -7
-4 -4 -10z"/>
<path d="M554 319 c-17 -5 -31 -14 -32 -21 0 -7 -3 -30 -5 -51 l-4 -39 36 7
c20 4 41 7 46 8 18 3 25 21 25 65 0 46 -6 49 -66 31z"/>
<path d="M283 160 c-13 -6 -23 -18 -23 -30 0 -24 9 -25 57 -5 35 15 35 16 17
30 -22 17 -22 17 -51 5z"/>
<path d="M2690 149 c0 -5 5 -7 10 -4 6 3 10 8 10 11 0 2 -4 4 -10 4 -5 0 -10
-5 -10 -11z"/>
</g>
</svg>
